<svg xmlns="http://www.w3.org/2000/svg" width="154.961" height="154.961" viewBox="0 0 41 41"  xmlns:v="https://vecta.io/nano"><circle cx="20.5" cy="20.5" r="20.5" fill="#ffd829"/><path d="M9.236 13.665v2.098h4.212v2.085H9.236v3.27H6.538V11.58h7.48v2.085zm12.072 5.599h-4.033l-.749 1.854h-2.752l4.21-9.538h2.657l4.224 9.538h-2.807zm-.792-1.989l-1.226-3.052-1.225 3.052zM34.77 11.58l-4.088 9.538h-2.657l-4.074-9.538h2.916l2.589 6.213 2.643-6.213zm-22.5 11.355v6.357h-1.48l-2.807-3.387v3.387H6.22v-6.357h1.48l2.808 3.388v-3.388zm4.478 6.486c-.63.01-1.253-.137-1.812-.427-1.074-.555-1.741-1.67-1.722-2.879-.02-1.209.647-2.325 1.722-2.879.559-.29 1.182-.437 1.812-.427.63-.01 1.253.137 1.812.427 1.074.555 1.741 1.671 1.722 2.879.02 1.209-.647 2.325-1.722 2.88-.559.29-1.182.437-1.812.426zm0-1.49c.306.004.608-.074.874-.227s.475-.374.618-.641a1.94 1.94 0 0 0 .227-.949 1.94 1.94 0 0 0-.227-.949c-.143-.266-.358-.487-.619-.639-.542-.303-1.202-.303-1.744 0-.261.152-.475.374-.618.641a1.94 1.94 0 0 0-.227.949 1.94 1.94 0 0 0 .227.949c.143.266.357.487.618.638s.566.231.872.228zm5.741-3.57h-1.953v-1.426h5.695v1.426h-1.943v4.931h-1.8zm9.52 3.541v1.39h-5.105v-6.357h4.987v1.39h-3.206v1.072h2.825v1.344h-2.825v1.16zm1.735 1.472c-.274.006-.54-.098-.736-.291a.98.98 0 0 1-.3-.736.97.97 0 0 1 .295-.736 1.12 1.12 0 0 1 1.485 0 .98.98 0 0 1 .291.736.99.99 0 0 1-.295.736 1.01 1.01 0 0 1-.74.292z"/></svg>